<?xml version="1.0" encoding="utf-8"?>
<!-- Generator: Adobe Illustrator 17.1.0, SVG Export Plug-In . SVG Version: 6.00 Build 0)  -->
<!DOCTYPE svg PUBLIC "-//W3C//DTD SVG 1.1//EN" "http://www.w3.org/Graphics/SVG/1.1/DTD/svg11.dtd">
<svg version="1.1" id="Layer_1" xmlns="http://www.w3.org/2000/svg" xmlns:xlink="http://www.w3.org/1999/xlink" x="0px" y="0px"
	 viewBox="0 0 1440 1440" enable-background="new 0 0 1440 1440" xml:space="preserve">
<g>
	<path fill="#FFFFFF" d="M1307.2,585.9V439.6c0.9-3.7,1.4-7.5,1.4-11.3c0-94.4-279-170.9-623.1-170.9s-623,76.5-623.1,170.9H61
		v603.6h1.2c21.3,104.1,321.5,150.7,619.2,150.7c1.4,0,2.7,0,4.1,0h693.4V585.9H1307.2z"/>
</g>
<g>
	<ellipse fill="#010101" cx="684.1" cy="414.5" rx="343.3" ry="88.2"/>
	<path fill="#010101" d="M1307.2,585.9V439.6c0.9-3.7,1.4-7.5,1.4-11.3c0-94.4-279-170.9-623.1-170.9s-623,76.5-623.1,170.9H61
		v603.6h1.2c21.3,104.1,321.5,150.7,619.2,150.7c1.4,0,2.7,0,4.1,0h693.4V585.9H1307.2z M1293.4,585.9H927
		c183.3-21.2,321.9-65.7,366.4-120V585.9z M248.6,320.7c116.5-32,271.7-49.6,436.9-49.6s320.4,17.6,436.9,49.6
		c107.9,29.6,172.4,69.8,172.4,107.6s-64.4,78-172.4,107.6c-116.5,32-271.7,49.6-436.9,49.6s-320.4-17.6-436.9-49.6
		C140.7,506.3,76.2,466.1,76.2,428.3C76.2,390.6,140.7,350.4,248.6,320.7z M1365.1,1168.8H685.5v6.9v-6.9c-1.4,0-2.8,0-4.3,0
		c-168.5,0-321.4-14.4-430.8-40.5c-112.1-26.8-174.4-64.8-175.6-107.1V462.4c57.6,78.1,309.1,136.8,610.7,136.8v0.5h679.6V1168.8z"
		/>
</g>
<g>
	<path fill="#010101" d="M1178.4,619.7c21.1,0,41.7,6.6,61.2,19.5c19.4,12.9,37,31.5,52.2,55.3c15.5,24.3,27.7,52.7,36.2,84.4
		c8.9,33,13.4,68.2,13.4,104.4s-4.5,71.4-13.4,104.4c-8.5,31.7-20.7,60.1-36.2,84.4c-15.2,23.8-32.8,42.5-52.2,55.3
		c-19.5,12.9-40.1,19.5-61.2,19.5s-41.7-6.6-61.2-19.5c-19.4-12.9-37-31.5-52.2-55.3c-15.5-24.3-27.7-52.7-36.2-84.4
		c-8.9-33-13.4-68.2-13.4-104.4s4.5-71.4,13.4-104.4c8.5-31.7,20.7-60.1,36.2-84.4c15.2-23.8,32.8-42.5,52.2-55.3
		C1136.8,626.3,1157.3,619.7,1178.4,619.7 M1178.4,605.7c-97.8,0-177.1,124.3-177.1,277.6s79.3,277.6,177.1,277.6
		c97.8,0,177.1-124.3,177.1-277.6S1276.2,605.7,1178.4,605.7L1178.4,605.7z"/>
</g>
<g>
	<path fill="#010101" d="M806.7,620.7c21.1,0,41.7,6.6,61.2,19.5c19.4,12.9,37,31.5,52.2,55.3c15.5,24.3,27.7,52.7,36.2,84.4
		c8.9,33,13.4,68.2,13.4,104.4s-4.5,71.4-13.4,104.4c-8.5,31.7-20.7,60.1-36.2,84.4c-15.2,23.8-32.8,42.5-52.2,55.3
		c-19.5,12.9-40.1,19.5-61.2,19.5c-21.1,0-41.7-6.6-61.2-19.5c-19.4-12.9-37-31.5-52.2-55.3c-15.5-24.3-27.7-52.7-36.2-84.4
		c-8.9-33-13.4-68.2-13.4-104.4s4.5-71.4,13.4-104.4c8.5-31.7,20.7-60.1,36.2-84.4c15.2-23.8,32.8-42.5,52.2-55.3
		C765.1,627.3,785.6,620.7,806.7,620.7 M806.7,606.7c-97.8,0-177.1,124.3-177.1,277.6s79.3,277.6,177.1,277.6
		s177.1-124.3,177.1-277.6S904.5,606.7,806.7,606.7L806.7,606.7z"/>
</g>
<g>
	<path fill="#010101" d="M443.2,607.9c21.1,0,41.7,6.6,61.2,19.5c19.4,12.9,37,31.5,52.2,55.3c15.5,24.3,27.7,52.7,36.2,84.4
		c8.9,33,13.4,68.2,13.4,104.4s-4.5,71.4-13.4,104.4c-8.5,31.7-20.7,60.1-36.2,84.4c-15.2,23.8-32.8,42.5-52.2,55.3
		c-19.5,12.9-40.1,19.5-61.2,19.5s-41.7-6.6-61.2-19.5c-19.4-12.9-37-31.5-52.2-55.3c-15.5-24.3-27.7-52.7-36.2-84.4
		c-8.9-33-13.4-68.2-13.4-104.4s4.5-71.4,13.4-104.4c8.5-31.7,20.7-60.1,36.2-84.4c15.2-23.8,32.8-42.5,52.2-55.3
		C401.5,614.5,422.1,607.9,443.2,607.9 M443.2,593.9c-97.8,0-177.1,124.3-177.1,277.6s79.3,277.6,177.1,277.6
		s177.1-124.3,177.1-277.6S541,593.9,443.2,593.9L443.2,593.9z"/>
</g>
<path fill="#010101" d="M75.2,1050.9v-13.5c93.8,0,170.1-117.1,170.1-260.9c0-143.9-76.3-261-170.1-261V502
	c49.8,0,96.3,29,131.1,81.6c34.2,51.7,53,120.2,53,193s-18.8,141.3-53,192.9C171.5,1022,125,1050.9,75.2,1050.9z"/>
</svg>
